<mxfile host="app.diagrams.net" agent="Mozilla/5.0 (Macintosh; Intel Mac OS X 10_15_7) AppleWebKit/537.36 (KHTML, like Gecko) Chrome/131.0.0.0 Safari/537.36" version="26.0.5">
  <diagram name="페이지-1" id="EIWsYM2r6ZabzUC5wO5q">
    <mxGraphModel dx="1720" dy="864" grid="1" gridSize="10" guides="1" tooltips="1" connect="1" arrows="1" fold="1" page="1" pageScale="1" pageWidth="827" pageHeight="1169" math="0" shadow="0">
      <root>
        <mxCell id="0" />
        <mxCell id="1" parent="0" />
        <mxCell id="D5hKf2jFQNWXoEHRUFzK-64" value="" style="rounded=1;whiteSpace=wrap;html=1;" vertex="1" parent="1">
          <mxGeometry x="800" y="599" width="310" height="241" as="geometry" />
        </mxCell>
        <mxCell id="D5hKf2jFQNWXoEHRUFzK-96" value="" style="rounded=1;whiteSpace=wrap;html=1;" vertex="1" parent="1">
          <mxGeometry x="830" y="615" width="250" height="185" as="geometry" />
        </mxCell>
        <mxCell id="D5hKf2jFQNWXoEHRUFzK-7" value="" style="rounded=1;whiteSpace=wrap;html=1;" vertex="1" parent="1">
          <mxGeometry x="50" y="95" width="570" height="245" as="geometry" />
        </mxCell>
        <mxCell id="D5hKf2jFQNWXoEHRUFzK-12" value="" style="rounded=1;whiteSpace=wrap;html=1;" vertex="1" parent="1">
          <mxGeometry x="70" y="110" width="250" height="200" as="geometry" />
        </mxCell>
        <mxCell id="D5hKf2jFQNWXoEHRUFzK-3" value="Trigger&amp;nbsp;&lt;div&gt;MA_FT_TEMP_LOG_TRIGGER&lt;/div&gt;&lt;div&gt;MA_AT_TEMP_LOG_TRIGGER&lt;/div&gt;" style="rounded=1;whiteSpace=wrap;html=1;" vertex="1" parent="1">
          <mxGeometry x="370" y="215" width="230" height="95" as="geometry" />
        </mxCell>
        <mxCell id="D5hKf2jFQNWXoEHRUFzK-8" value="&lt;h3&gt;&lt;span style=&quot;color: rgb(0, 0, 0); font-family: Helvetica; font-style: normal; font-variant-ligatures: normal; font-variant-caps: normal; font-weight: 400; letter-spacing: normal; orphans: 2; text-align: center; text-indent: 0px; text-transform: none; widows: 2; word-spacing: 0px; -webkit-text-stroke-width: 0px; white-space: normal; background-color: rgb(251, 251, 251); text-decoration-thickness: initial; text-decoration-style: initial; text-decoration-color: initial; float: none; display: inline !important;&quot;&gt;&lt;font style=&quot;font-size: 18px;&quot;&gt;Maria DB&lt;/font&gt;&lt;/span&gt;&lt;/h3&gt;" style="text;html=1;align=center;verticalAlign=middle;whiteSpace=wrap;rounded=0;" vertex="1" parent="1">
          <mxGeometry x="265" y="60" width="140" height="35" as="geometry" />
        </mxCell>
        <mxCell id="D5hKf2jFQNWXoEHRUFzK-9" value="&lt;br style=&quot;forced-color-adjust: none; color: rgb(0, 0, 0); font-family: Helvetica; font-size: 12px; font-style: normal; font-variant-ligatures: normal; font-variant-caps: normal; font-weight: 400; letter-spacing: normal; orphans: 2; text-align: center; text-indent: 0px; text-transform: none; widows: 2; word-spacing: 0px; -webkit-text-stroke-width: 0px; white-space: normal; background-color: rgb(251, 251, 251); text-decoration-thickness: initial; text-decoration-style: initial; text-decoration-color: initial;&quot;&gt;&lt;div style=&quot;forced-color-adjust: none; color: rgb(0, 0, 0); font-family: Helvetica; font-size: 12px; font-style: normal; font-variant-ligatures: normal; font-variant-caps: normal; font-weight: 400; letter-spacing: normal; orphans: 2; text-align: center; text-indent: 0px; text-transform: none; widows: 2; word-spacing: 0px; -webkit-text-stroke-width: 0px; white-space: normal; background-color: rgb(251, 251, 251); text-decoration-thickness: initial; text-decoration-style: initial; text-decoration-color: initial;&quot;&gt;imc.IMC_FT_BIZ_MSG_LOG&lt;/div&gt;&lt;div style=&quot;forced-color-adjust: none; color: rgb(0, 0, 0); font-family: Helvetica; font-size: 12px; font-style: normal; font-variant-ligatures: normal; font-variant-caps: normal; font-weight: 400; letter-spacing: normal; orphans: 2; text-align: center; text-indent: 0px; text-transform: none; widows: 2; word-spacing: 0px; -webkit-text-stroke-width: 0px; white-space: normal; background-color: rgb(251, 251, 251); text-decoration-thickness: initial; text-decoration-style: initial; text-decoration-color: initial;&quot;&gt;imc.IMC_AT_BIZ_MSG_LOG&lt;/div&gt;" style="rounded=1;whiteSpace=wrap;html=1;" vertex="1" parent="1">
          <mxGeometry x="90" y="220" width="210" height="60" as="geometry" />
        </mxCell>
        <mxCell id="D5hKf2jFQNWXoEHRUFzK-10" value="&lt;span style=&quot;color: rgb(0, 0, 0); font-family: Helvetica; font-size: 12px; font-style: normal; font-variant-ligatures: normal; font-variant-caps: normal; font-weight: 400; letter-spacing: normal; orphans: 2; text-align: center; text-indent: 0px; text-transform: none; widows: 2; word-spacing: 0px; -webkit-text-stroke-width: 0px; white-space: normal; background-color: rgb(251, 251, 251); text-decoration-thickness: initial; text-decoration-style: initial; text-decoration-color: initial; float: none; display: inline !important;&quot;&gt;imc.IMC_FT_BIZ_MSG&lt;/span&gt;&lt;div&gt;&lt;span style=&quot;color: rgb(0, 0, 0); font-family: Helvetica; font-size: 12px; font-style: normal; font-variant-ligatures: normal; font-variant-caps: normal; font-weight: 400; letter-spacing: normal; orphans: 2; text-align: center; text-indent: 0px; text-transform: none; widows: 2; word-spacing: 0px; -webkit-text-stroke-width: 0px; white-space: normal; background-color: rgb(251, 251, 251); text-decoration-thickness: initial; text-decoration-style: initial; text-decoration-color: initial; float: none; display: inline !important;&quot;&gt;imc.IMC_AT_BIZ_MSG&lt;/span&gt;&lt;/div&gt;" style="rounded=1;whiteSpace=wrap;html=1;" vertex="1" parent="1">
          <mxGeometry x="90" y="130" width="210" height="60" as="geometry" />
        </mxCell>
        <mxCell id="D5hKf2jFQNWXoEHRUFzK-11" value="" style="endArrow=classic;html=1;rounded=0;exitX=0.5;exitY=1;exitDx=0;exitDy=0;entryX=0.5;entryY=0;entryDx=0;entryDy=0;" edge="1" parent="1" source="D5hKf2jFQNWXoEHRUFzK-10" target="D5hKf2jFQNWXoEHRUFzK-9">
          <mxGeometry width="50" height="50" relative="1" as="geometry">
            <mxPoint x="400" y="340" as="sourcePoint" />
            <mxPoint x="450" y="290" as="targetPoint" />
          </mxGeometry>
        </mxCell>
        <mxCell id="D5hKf2jFQNWXoEHRUFzK-13" value="&lt;font style=&quot;font-size: 12px;&quot;&gt;IMC_AGENT&lt;/font&gt;" style="text;strokeColor=none;fillColor=none;html=1;fontSize=24;fontStyle=1;verticalAlign=middle;align=center;" vertex="1" parent="1">
          <mxGeometry x="145" y="100" width="100" height="30" as="geometry" />
        </mxCell>
        <mxCell id="D5hKf2jFQNWXoEHRUFzK-14" value="MA_FT_TEMP_LOG&lt;div&gt;MA_AT_TEMP_LOG&lt;/div&gt;" style="shape=cylinder3;whiteSpace=wrap;html=1;boundedLbl=1;backgroundOutline=1;size=15;" vertex="1" parent="1">
          <mxGeometry x="413" y="130" width="130" height="70" as="geometry" />
        </mxCell>
        <mxCell id="D5hKf2jFQNWXoEHRUFzK-17" value="" style="rounded=1;whiteSpace=wrap;html=1;" vertex="1" parent="1">
          <mxGeometry x="790" y="99" width="310" height="241" as="geometry" />
        </mxCell>
        <mxCell id="D5hKf2jFQNWXoEHRUFzK-18" value="&lt;font style=&quot;font-size: 18px;&quot;&gt;Logstash_5.1.2&lt;/font&gt;" style="text;html=1;align=center;verticalAlign=middle;whiteSpace=wrap;rounded=0;" vertex="1" parent="1">
          <mxGeometry x="875" y="60" width="140" height="35" as="geometry" />
        </mxCell>
        <mxCell id="D5hKf2jFQNWXoEHRUFzK-19" value="" style="endArrow=classic;html=1;rounded=0;exitX=1;exitY=0.5;exitDx=0;exitDy=0;entryX=-0.013;entryY=0.372;entryDx=0;entryDy=0;entryPerimeter=0;" edge="1" parent="1" source="D5hKf2jFQNWXoEHRUFzK-9" target="D5hKf2jFQNWXoEHRUFzK-3">
          <mxGeometry width="50" height="50" relative="1" as="geometry">
            <mxPoint x="700" y="300" as="sourcePoint" />
            <mxPoint x="750" y="250" as="targetPoint" />
          </mxGeometry>
        </mxCell>
        <mxCell id="D5hKf2jFQNWXoEHRUFzK-21" value="Produce to&amp;nbsp;&lt;div&gt;imc-send-ver5, imc-send-ver6&lt;/div&gt;" style="rounded=1;whiteSpace=wrap;html=1;" vertex="1" parent="1">
          <mxGeometry x="840" y="135" width="210" height="55" as="geometry" />
        </mxCell>
        <mxCell id="D5hKf2jFQNWXoEHRUFzK-22" value="" style="rounded=1;whiteSpace=wrap;html=1;" vertex="1" parent="1">
          <mxGeometry x="1260" y="100" width="310" height="245" as="geometry" />
        </mxCell>
        <mxCell id="D5hKf2jFQNWXoEHRUFzK-23" value="&lt;font style=&quot;font-size: 18px;&quot;&gt;Kafka(29,30,31)&lt;/font&gt;" style="text;html=1;align=center;verticalAlign=middle;whiteSpace=wrap;rounded=0;" vertex="1" parent="1">
          <mxGeometry x="1345" y="60" width="140" height="35" as="geometry" />
        </mxCell>
        <mxCell id="D5hKf2jFQNWXoEHRUFzK-24" value="imc-send-ver5" style="rounded=1;whiteSpace=wrap;html=1;" vertex="1" parent="1">
          <mxGeometry x="1310" y="129" width="210" height="65" as="geometry" />
        </mxCell>
        <mxCell id="D5hKf2jFQNWXoEHRUFzK-25" value="Topic" style="text;html=1;align=center;verticalAlign=middle;whiteSpace=wrap;rounded=0;" vertex="1" parent="1">
          <mxGeometry x="1385" y="105" width="60" height="30" as="geometry" />
        </mxCell>
        <mxCell id="D5hKf2jFQNWXoEHRUFzK-26" value="" style="endArrow=classic;html=1;rounded=0;exitX=1;exitY=0.5;exitDx=0;exitDy=0;exitPerimeter=0;" edge="1" parent="1" source="D5hKf2jFQNWXoEHRUFzK-14" target="D5hKf2jFQNWXoEHRUFzK-21">
          <mxGeometry width="50" height="50" relative="1" as="geometry">
            <mxPoint x="970" y="300" as="sourcePoint" />
            <mxPoint x="1020" y="250" as="targetPoint" />
          </mxGeometry>
        </mxCell>
        <mxCell id="D5hKf2jFQNWXoEHRUFzK-27" value="&lt;meta charset=&quot;utf-8&quot;&gt;&lt;span style=&quot;color: rgb(0, 0, 0); font-family: Helvetica; font-size: 12px; font-style: normal; font-variant-ligatures: normal; font-variant-caps: normal; font-weight: 400; letter-spacing: normal; orphans: 2; text-align: center; text-indent: 0px; text-transform: none; widows: 2; word-spacing: 0px; -webkit-text-stroke-width: 0px; white-space: normal; background-color: rgb(251, 251, 251); text-decoration-thickness: initial; text-decoration-style: initial; text-decoration-color: initial; display: inline !important; float: none;&quot;&gt;&amp;nbsp;schedule =&amp;gt; &quot;*/3 * * * *&quot;&lt;/span&gt;" style="text;strokeColor=none;fillColor=none;align=left;verticalAlign=middle;spacingLeft=4;spacingRight=4;overflow=hidden;points=[[0,0.5],[1,0.5]];portConstraint=eastwest;rotatable=0;whiteSpace=wrap;html=1;" vertex="1" parent="1">
          <mxGeometry x="630" y="135" width="160" height="35" as="geometry" />
        </mxCell>
        <mxCell id="D5hKf2jFQNWXoEHRUFzK-28" value="" style="endArrow=classic;html=1;rounded=0;exitX=1;exitY=0.5;exitDx=0;exitDy=0;exitPerimeter=0;entryX=0;entryY=0.5;entryDx=0;entryDy=0;" edge="1" parent="1" target="D5hKf2jFQNWXoEHRUFzK-24">
          <mxGeometry width="50" height="50" relative="1" as="geometry">
            <mxPoint x="1050" y="161" as="sourcePoint" />
            <mxPoint x="1347" y="159" as="targetPoint" />
          </mxGeometry>
        </mxCell>
        <mxCell id="D5hKf2jFQNWXoEHRUFzK-29" value="imc-send-ver6" style="rounded=1;whiteSpace=wrap;html=1;" vertex="1" parent="1">
          <mxGeometry x="1310" y="215" width="210" height="65" as="geometry" />
        </mxCell>
        <mxCell id="D5hKf2jFQNWXoEHRUFzK-30" value="" style="endArrow=classic;html=1;rounded=0;exitX=1;exitY=0.5;exitDx=0;exitDy=0;entryX=0;entryY=0.5;entryDx=0;entryDy=0;" edge="1" parent="1" source="D5hKf2jFQNWXoEHRUFzK-21" target="D5hKf2jFQNWXoEHRUFzK-29">
          <mxGeometry width="50" height="50" relative="1" as="geometry">
            <mxPoint x="1060" y="171" as="sourcePoint" />
            <mxPoint x="1320" y="172" as="targetPoint" />
          </mxGeometry>
        </mxCell>
        <mxCell id="D5hKf2jFQNWXoEHRUFzK-31" value="/app/logstash-5.1.2/humuson/imc-send.conf" style="text;html=1;align=center;verticalAlign=middle;whiteSpace=wrap;rounded=0;" vertex="1" parent="1">
          <mxGeometry x="780" y="194" width="310" height="30" as="geometry" />
        </mxCell>
        <mxCell id="D5hKf2jFQNWXoEHRUFzK-32" value="" style="rounded=1;whiteSpace=wrap;html=1;" vertex="1" parent="1">
          <mxGeometry x="1750" y="99" width="300" height="241" as="geometry" />
        </mxCell>
        <mxCell id="D5hKf2jFQNWXoEHRUFzK-33" value="&lt;font style=&quot;font-size: 18px;&quot;&gt;tma-trk&lt;/font&gt;" style="text;html=1;align=center;verticalAlign=middle;whiteSpace=wrap;rounded=0;" vertex="1" parent="1">
          <mxGeometry x="1835" y="60" width="140" height="35" as="geometry" />
        </mxCell>
        <mxCell id="D5hKf2jFQNWXoEHRUFzK-34" value="imc-send-ver5 consumer&lt;div&gt;(Concurrency 20)&lt;/div&gt;" style="rounded=1;whiteSpace=wrap;html=1;" vertex="1" parent="1">
          <mxGeometry x="1800" y="149.5" width="210" height="65" as="geometry" />
        </mxCell>
        <mxCell id="D5hKf2jFQNWXoEHRUFzK-35" value="imc-send-ver6 consumer&lt;div&gt;(Concurrency 20)&lt;/div&gt;" style="rounded=1;whiteSpace=wrap;html=1;" vertex="1" parent="1">
          <mxGeometry x="1800" y="232" width="210" height="65" as="geometry" />
        </mxCell>
        <mxCell id="D5hKf2jFQNWXoEHRUFzK-36" value="&lt;font style=&quot;font-size: 18px;&quot;&gt;...&amp;nbsp;&lt;/font&gt;" style="text;html=1;align=center;verticalAlign=middle;whiteSpace=wrap;rounded=0;" vertex="1" parent="1">
          <mxGeometry x="1835" y="102.5" width="140" height="35" as="geometry" />
        </mxCell>
        <mxCell id="D5hKf2jFQNWXoEHRUFzK-40" value="" style="edgeStyle=segmentEdgeStyle;endArrow=classic;html=1;curved=0;rounded=0;endSize=8;startSize=8;entryX=0.5;entryY=1;entryDx=0;entryDy=0;exitX=0.5;exitY=1;exitDx=0;exitDy=0;" edge="1" parent="1" source="D5hKf2jFQNWXoEHRUFzK-35" target="D5hKf2jFQNWXoEHRUFzK-3">
          <mxGeometry width="50" height="50" relative="1" as="geometry">
            <mxPoint x="1689.4117647058824" y="420" as="sourcePoint" />
            <mxPoint x="450" y="320" as="targetPoint" />
            <Array as="points">
              <mxPoint x="1905" y="420" />
              <mxPoint x="485" y="420" />
            </Array>
          </mxGeometry>
        </mxCell>
        <mxCell id="D5hKf2jFQNWXoEHRUFzK-42" value="&lt;font style=&quot;font-size: 14px;&quot;&gt;DELETE data&lt;/font&gt;" style="text;html=1;align=center;verticalAlign=middle;whiteSpace=wrap;rounded=0;" vertex="1" parent="1">
          <mxGeometry x="415" y="370" width="140" height="30" as="geometry" />
        </mxCell>
        <mxCell id="D5hKf2jFQNWXoEHRUFzK-43" value="" style="endArrow=classic;html=1;rounded=0;exitX=1;exitY=0.5;exitDx=0;exitDy=0;exitPerimeter=0;entryX=0;entryY=0.5;entryDx=0;entryDy=0;" edge="1" parent="1" target="D5hKf2jFQNWXoEHRUFzK-34">
          <mxGeometry width="50" height="50" relative="1" as="geometry">
            <mxPoint x="1520" y="159.41" as="sourcePoint" />
            <mxPoint x="1780" y="160.41" as="targetPoint" />
          </mxGeometry>
        </mxCell>
        <mxCell id="D5hKf2jFQNWXoEHRUFzK-44" value="" style="endArrow=classic;html=1;rounded=0;exitX=1;exitY=0.5;exitDx=0;exitDy=0;exitPerimeter=0;entryX=0;entryY=0.5;entryDx=0;entryDy=0;" edge="1" parent="1" target="D5hKf2jFQNWXoEHRUFzK-35">
          <mxGeometry width="50" height="50" relative="1" as="geometry">
            <mxPoint x="1520" y="246.91" as="sourcePoint" />
            <mxPoint x="1780" y="247.91" as="targetPoint" />
          </mxGeometry>
        </mxCell>
        <mxCell id="D5hKf2jFQNWXoEHRUFzK-47" value="&lt;span style=&quot;color: rgb(0, 0, 0); font-family: Helvetica; font-style: normal; font-variant-ligatures: normal; font-variant-caps: normal; font-weight: 400; letter-spacing: normal; orphans: 2; text-align: center; text-indent: 0px; text-transform: none; widows: 2; word-spacing: 0px; -webkit-text-stroke-width: 0px; white-space: normal; background-color: rgb(251, 251, 251); text-decoration-thickness: initial; text-decoration-style: initial; text-decoration-color: initial; float: none; display: inline !important;&quot;&gt;&lt;font style=&quot;font-size: 10px;&quot;&gt;processImcSned(String message)&amp;nbsp;&lt;/font&gt;&lt;/span&gt;" style="text;html=1;align=center;verticalAlign=middle;whiteSpace=wrap;rounded=0;" vertex="1" parent="1">
          <mxGeometry x="1560" y="140" width="210" height="30" as="geometry" />
        </mxCell>
        <mxCell id="D5hKf2jFQNWXoEHRUFzK-48" value="&lt;span style=&quot;color: rgb(0, 0, 0); font-family: Helvetica; font-style: normal; font-variant-ligatures: normal; font-variant-caps: normal; font-weight: 400; letter-spacing: normal; orphans: 2; text-align: center; text-indent: 0px; text-transform: none; widows: 2; word-spacing: 0px; -webkit-text-stroke-width: 0px; white-space: normal; background-color: rgb(251, 251, 251); text-decoration-thickness: initial; text-decoration-style: initial; text-decoration-color: initial; float: none; display: inline !important;&quot;&gt;&lt;font style=&quot;font-size: 10px;&quot;&gt;processImcSned(String message)&amp;nbsp;&lt;/font&gt;&lt;/span&gt;" style="text;html=1;align=center;verticalAlign=middle;whiteSpace=wrap;rounded=0;" vertex="1" parent="1">
          <mxGeometry x="1560" y="224" width="210" height="30" as="geometry" />
        </mxCell>
        <mxCell id="D5hKf2jFQNWXoEHRUFzK-49" value="&lt;h3&gt;&lt;span style=&quot;color: rgb(0, 0, 0); font-family: Helvetica; font-style: normal; font-variant-ligatures: normal; font-variant-caps: normal; font-weight: 400; letter-spacing: normal; orphans: 2; text-align: center; text-indent: 0px; text-transform: none; widows: 2; word-spacing: 0px; -webkit-text-stroke-width: 0px; white-space: normal; background-color: rgb(251, 251, 251); text-decoration-thickness: initial; text-decoration-style: initial; text-decoration-color: initial; float: none; display: inline !important;&quot;&gt;&lt;font style=&quot;font-size: 18px;&quot;&gt;Maria DB&lt;/font&gt;&lt;/span&gt;&lt;/h3&gt;" style="text;html=1;align=center;verticalAlign=middle;whiteSpace=wrap;rounded=0;" vertex="1" parent="1">
          <mxGeometry x="2310" y="64" width="140" height="35" as="geometry" />
        </mxCell>
        <mxCell id="D5hKf2jFQNWXoEHRUFzK-50" value="" style="rounded=1;whiteSpace=wrap;html=1;" vertex="1" parent="1">
          <mxGeometry x="2240" y="97" width="290" height="245" as="geometry" />
        </mxCell>
        <mxCell id="D5hKf2jFQNWXoEHRUFzK-51" value="PROGRMA_MA_SCHD&lt;div&gt;PROGRMA_MA_SCHD_CHANNEL&lt;/div&gt;&lt;div&gt;PROGRAM_MA_TARGET_LIST&lt;/div&gt;" style="shape=cylinder3;whiteSpace=wrap;html=1;boundedLbl=1;backgroundOutline=1;size=15;" vertex="1" parent="1">
          <mxGeometry x="2281" y="137.5" width="200" height="130" as="geometry" />
        </mxCell>
        <mxCell id="D5hKf2jFQNWXoEHRUFzK-52" value="" style="endArrow=classic;html=1;rounded=0;exitX=1;exitY=0.5;exitDx=0;exitDy=0;entryX=0;entryY=0.5;entryDx=0;entryDy=0;entryPerimeter=0;" edge="1" parent="1" source="D5hKf2jFQNWXoEHRUFzK-34" target="D5hKf2jFQNWXoEHRUFzK-51">
          <mxGeometry width="50" height="50" relative="1" as="geometry">
            <mxPoint x="2009.0000000000005" y="174" as="sourcePoint" />
            <mxPoint x="2289.0000000000005" y="182.01999999999998" as="targetPoint" />
          </mxGeometry>
        </mxCell>
        <mxCell id="D5hKf2jFQNWXoEHRUFzK-53" value="" style="endArrow=classic;html=1;rounded=0;exitX=1;exitY=0.5;exitDx=0;exitDy=0;entryX=0;entryY=0.5;entryDx=0;entryDy=0;entryPerimeter=0;" edge="1" parent="1" target="D5hKf2jFQNWXoEHRUFzK-51">
          <mxGeometry width="50" height="50" relative="1" as="geometry">
            <mxPoint x="2010.0000000000005" y="264.75" as="sourcePoint" />
            <mxPoint x="2291" y="213.25" as="targetPoint" />
          </mxGeometry>
        </mxCell>
        <mxCell id="D5hKf2jFQNWXoEHRUFzK-54" value="UPDATE&amp;nbsp;&lt;div&gt;INSERT&lt;/div&gt;" style="text;html=1;align=center;verticalAlign=middle;whiteSpace=wrap;rounded=0;" vertex="1" parent="1">
          <mxGeometry x="2080" y="200" width="120" height="30" as="geometry" />
        </mxCell>
        <mxCell id="D5hKf2jFQNWXoEHRUFzK-55" value="" style="rounded=1;whiteSpace=wrap;html=1;" vertex="1" parent="1">
          <mxGeometry x="60" y="595" width="570" height="245" as="geometry" />
        </mxCell>
        <mxCell id="D5hKf2jFQNWXoEHRUFzK-56" value="" style="rounded=1;whiteSpace=wrap;html=1;" vertex="1" parent="1">
          <mxGeometry x="80" y="610" width="250" height="200" as="geometry" />
        </mxCell>
        <mxCell id="D5hKf2jFQNWXoEHRUFzK-58" value="&lt;h3&gt;&lt;span style=&quot;color: rgb(0, 0, 0); font-family: Helvetica; font-style: normal; font-variant-ligatures: normal; font-variant-caps: normal; font-weight: 400; letter-spacing: normal; orphans: 2; text-align: center; text-indent: 0px; text-transform: none; widows: 2; word-spacing: 0px; -webkit-text-stroke-width: 0px; white-space: normal; background-color: rgb(251, 251, 251); text-decoration-thickness: initial; text-decoration-style: initial; text-decoration-color: initial; float: none; display: inline !important;&quot;&gt;&lt;font style=&quot;font-size: 18px;&quot;&gt;Maria DB&lt;/font&gt;&lt;/span&gt;&lt;/h3&gt;" style="text;html=1;align=center;verticalAlign=middle;whiteSpace=wrap;rounded=0;" vertex="1" parent="1">
          <mxGeometry x="275" y="560" width="140" height="35" as="geometry" />
        </mxCell>
        <mxCell id="D5hKf2jFQNWXoEHRUFzK-59" value="&lt;br style=&quot;forced-color-adjust: none; color: rgb(0, 0, 0); font-family: Helvetica; font-size: 12px; font-style: normal; font-variant-ligatures: normal; font-variant-caps: normal; font-weight: 400; letter-spacing: normal; orphans: 2; text-align: center; text-indent: 0px; text-transform: none; widows: 2; word-spacing: 0px; -webkit-text-stroke-width: 0px; white-space: normal; background-color: rgb(251, 251, 251); text-decoration-thickness: initial; text-decoration-style: initial; text-decoration-color: initial;&quot;&gt;&lt;div style=&quot;forced-color-adjust: none; color: rgb(0, 0, 0); font-family: Helvetica; font-size: 12px; font-style: normal; font-variant-ligatures: normal; font-variant-caps: normal; font-weight: 400; letter-spacing: normal; orphans: 2; text-align: center; text-indent: 0px; text-transform: none; widows: 2; word-spacing: 0px; -webkit-text-stroke-width: 0px; white-space: normal; background-color: rgb(251, 251, 251); text-decoration-thickness: initial; text-decoration-style: initial; text-decoration-color: initial;&quot;&gt;imc.IMC_FT_BIZ_MSG_LOG&lt;/div&gt;&lt;div style=&quot;forced-color-adjust: none; color: rgb(0, 0, 0); font-family: Helvetica; font-size: 12px; font-style: normal; font-variant-ligatures: normal; font-variant-caps: normal; font-weight: 400; letter-spacing: normal; orphans: 2; text-align: center; text-indent: 0px; text-transform: none; widows: 2; word-spacing: 0px; -webkit-text-stroke-width: 0px; white-space: normal; background-color: rgb(251, 251, 251); text-decoration-thickness: initial; text-decoration-style: initial; text-decoration-color: initial;&quot;&gt;imc.IMC_AT_BIZ_MSG_LOG&lt;/div&gt;" style="rounded=1;whiteSpace=wrap;html=1;" vertex="1" parent="1">
          <mxGeometry x="100" y="720" width="210" height="60" as="geometry" />
        </mxCell>
        <mxCell id="D5hKf2jFQNWXoEHRUFzK-60" value="&lt;span style=&quot;color: rgb(0, 0, 0); font-family: Helvetica; font-size: 12px; font-style: normal; font-variant-ligatures: normal; font-variant-caps: normal; font-weight: 400; letter-spacing: normal; orphans: 2; text-align: center; text-indent: 0px; text-transform: none; widows: 2; word-spacing: 0px; -webkit-text-stroke-width: 0px; white-space: normal; background-color: rgb(251, 251, 251); text-decoration-thickness: initial; text-decoration-style: initial; text-decoration-color: initial; float: none; display: inline !important;&quot;&gt;imc.IMC_FT_BIZ_MSG&lt;/span&gt;&lt;div&gt;&lt;span style=&quot;color: rgb(0, 0, 0); font-family: Helvetica; font-size: 12px; font-style: normal; font-variant-ligatures: normal; font-variant-caps: normal; font-weight: 400; letter-spacing: normal; orphans: 2; text-align: center; text-indent: 0px; text-transform: none; widows: 2; word-spacing: 0px; -webkit-text-stroke-width: 0px; white-space: normal; background-color: rgb(251, 251, 251); text-decoration-thickness: initial; text-decoration-style: initial; text-decoration-color: initial; float: none; display: inline !important;&quot;&gt;imc.IMC_AT_BIZ_MSG&lt;/span&gt;&lt;/div&gt;" style="rounded=1;whiteSpace=wrap;html=1;" vertex="1" parent="1">
          <mxGeometry x="100" y="630" width="210" height="60" as="geometry" />
        </mxCell>
        <mxCell id="D5hKf2jFQNWXoEHRUFzK-61" value="" style="endArrow=classic;html=1;rounded=0;exitX=0.5;exitY=1;exitDx=0;exitDy=0;entryX=0.5;entryY=0;entryDx=0;entryDy=0;" edge="1" parent="1" source="D5hKf2jFQNWXoEHRUFzK-60" target="D5hKf2jFQNWXoEHRUFzK-59">
          <mxGeometry width="50" height="50" relative="1" as="geometry">
            <mxPoint x="410" y="840" as="sourcePoint" />
            <mxPoint x="460" y="790" as="targetPoint" />
          </mxGeometry>
        </mxCell>
        <mxCell id="D5hKf2jFQNWXoEHRUFzK-62" value="&lt;font style=&quot;font-size: 12px;&quot;&gt;IMC_AGENT&lt;/font&gt;" style="text;strokeColor=none;fillColor=none;html=1;fontSize=24;fontStyle=1;verticalAlign=middle;align=center;" vertex="1" parent="1">
          <mxGeometry x="155" y="600" width="100" height="30" as="geometry" />
        </mxCell>
        <mxCell id="D5hKf2jFQNWXoEHRUFzK-65" value="&lt;span style=&quot;font-size: 18px;&quot;&gt;Kafka Source Connect&lt;/span&gt;" style="text;html=1;align=center;verticalAlign=middle;whiteSpace=wrap;rounded=0;" vertex="1" parent="1">
          <mxGeometry x="827" y="560" width="245" height="35" as="geometry" />
        </mxCell>
        <mxCell id="D5hKf2jFQNWXoEHRUFzK-67" value="&lt;h1 style=&quot;margin: 0px; padding: 0px; box-sizing: border-box; display: flex; align-items: center; justify-content: flex-start; font-size: var(--ui-fontSizes-300); line-height: 1.5; flex-grow: 1; color: rgb(236, 238, 236); font-weight: var(--ui-fontWeights-bold); font-family: Geist, -apple-system, &amp;quot;system-ui&amp;quot;, &amp;quot;San Francisco&amp;quot;, &amp;quot;Segoe UI&amp;quot;, Roboto, &amp;quot;Helvetica Neue&amp;quot;, sans-serif; text-align: start; background-color: rgb(23, 24, 22);&quot; class=&quot;ui-c-gqwkJN ui-c-iEkvVg&quot;&gt;&lt;span style=&quot;color: rgb(0, 0, 0); font-family: Helvetica; text-align: center; background-color: rgb(251, 251, 251);&quot;&gt;imcFtBizMsgLog_sourceConnector&lt;/span&gt;&lt;/h1&gt;" style="rounded=1;whiteSpace=wrap;html=1;" vertex="1" parent="1">
          <mxGeometry x="850" y="635" width="210" height="55" as="geometry" />
        </mxCell>
        <mxCell id="D5hKf2jFQNWXoEHRUFzK-68" value="" style="rounded=1;whiteSpace=wrap;html=1;" vertex="1" parent="1">
          <mxGeometry x="1270" y="600" width="310" height="245" as="geometry" />
        </mxCell>
        <mxCell id="D5hKf2jFQNWXoEHRUFzK-69" value="&lt;font style=&quot;font-size: 18px;&quot;&gt;Kafka(29,30,31)&lt;/font&gt;" style="text;html=1;align=center;verticalAlign=middle;whiteSpace=wrap;rounded=0;" vertex="1" parent="1">
          <mxGeometry x="1355" y="560" width="140" height="35" as="geometry" />
        </mxCell>
        <mxCell id="D5hKf2jFQNWXoEHRUFzK-70" value="imc.IMC_FT_BIZ_MSG_LOG" style="rounded=1;whiteSpace=wrap;html=1;" vertex="1" parent="1">
          <mxGeometry x="1320" y="629" width="210" height="65" as="geometry" />
        </mxCell>
        <mxCell id="D5hKf2jFQNWXoEHRUFzK-71" value="Topic" style="text;html=1;align=center;verticalAlign=middle;whiteSpace=wrap;rounded=0;" vertex="1" parent="1">
          <mxGeometry x="1395" y="605" width="60" height="30" as="geometry" />
        </mxCell>
        <mxCell id="D5hKf2jFQNWXoEHRUFzK-72" value="" style="endArrow=classic;html=1;rounded=0;exitX=1;exitY=0.5;exitDx=0;exitDy=0;entryX=0;entryY=0.5;entryDx=0;entryDy=0;" edge="1" parent="1" source="D5hKf2jFQNWXoEHRUFzK-59" target="D5hKf2jFQNWXoEHRUFzK-67">
          <mxGeometry width="50" height="50" relative="1" as="geometry">
            <mxPoint x="553" y="665" as="sourcePoint" />
            <mxPoint x="1030" y="750" as="targetPoint" />
          </mxGeometry>
        </mxCell>
        <mxCell id="D5hKf2jFQNWXoEHRUFzK-74" value="" style="endArrow=classic;html=1;rounded=0;exitX=1;exitY=0.5;exitDx=0;exitDy=0;exitPerimeter=0;entryX=0;entryY=0.5;entryDx=0;entryDy=0;" edge="1" parent="1" target="D5hKf2jFQNWXoEHRUFzK-70">
          <mxGeometry width="50" height="50" relative="1" as="geometry">
            <mxPoint x="1060" y="661" as="sourcePoint" />
            <mxPoint x="1357" y="659" as="targetPoint" />
          </mxGeometry>
        </mxCell>
        <mxCell id="D5hKf2jFQNWXoEHRUFzK-75" value="imc.IMC_AT_BIZ_MSG_LOG" style="rounded=1;whiteSpace=wrap;html=1;" vertex="1" parent="1">
          <mxGeometry x="1320" y="706.5" width="210" height="65" as="geometry" />
        </mxCell>
        <mxCell id="D5hKf2jFQNWXoEHRUFzK-76" value="" style="endArrow=classic;html=1;rounded=0;exitX=1;exitY=0.5;exitDx=0;exitDy=0;entryX=0;entryY=0.5;entryDx=0;entryDy=0;" edge="1" parent="1" source="D5hKf2jFQNWXoEHRUFzK-95" target="D5hKf2jFQNWXoEHRUFzK-75">
          <mxGeometry width="50" height="50" relative="1" as="geometry">
            <mxPoint x="1070" y="671" as="sourcePoint" />
            <mxPoint x="1330" y="672" as="targetPoint" />
          </mxGeometry>
        </mxCell>
        <mxCell id="D5hKf2jFQNWXoEHRUFzK-78" value="" style="rounded=1;whiteSpace=wrap;html=1;" vertex="1" parent="1">
          <mxGeometry x="1760" y="599" width="300" height="241" as="geometry" />
        </mxCell>
        <mxCell id="D5hKf2jFQNWXoEHRUFzK-79" value="&lt;font style=&quot;font-size: 18px;&quot;&gt;tma-imc-trk&lt;/font&gt;" style="text;html=1;align=center;verticalAlign=middle;whiteSpace=wrap;rounded=0;" vertex="1" parent="1">
          <mxGeometry x="1845" y="560" width="140" height="35" as="geometry" />
        </mxCell>
        <mxCell id="D5hKf2jFQNWXoEHRUFzK-80" value="imc.IMC_FT_BIZ_MSG_LOG&amp;nbsp;&lt;div&gt;consumer&lt;span style=&quot;background-color: transparent; color: light-dark(rgb(0, 0, 0), rgb(255, 255, 255));&quot;&gt;(Concurrency 20)&lt;/span&gt;&lt;/div&gt;" style="rounded=1;whiteSpace=wrap;html=1;" vertex="1" parent="1">
          <mxGeometry x="1810" y="627.5" width="210" height="65" as="geometry" />
        </mxCell>
        <mxCell id="D5hKf2jFQNWXoEHRUFzK-81" value="imc.IMC_AT_BIZ_MSG_LOG&amp;nbsp;&lt;div&gt;consumer&amp;nbsp;&lt;span style=&quot;background-color: transparent; color: light-dark(rgb(0, 0, 0), rgb(255, 255, 255));&quot;&gt;(Concurrency 20)&lt;/span&gt;&lt;/div&gt;" style="rounded=1;whiteSpace=wrap;html=1;" vertex="1" parent="1">
          <mxGeometry x="1810" y="717" width="210" height="65" as="geometry" />
        </mxCell>
        <mxCell id="D5hKf2jFQNWXoEHRUFzK-85" value="" style="endArrow=classic;html=1;rounded=0;exitX=1;exitY=0.5;exitDx=0;exitDy=0;exitPerimeter=0;entryX=0;entryY=0.5;entryDx=0;entryDy=0;" edge="1" parent="1" target="D5hKf2jFQNWXoEHRUFzK-80">
          <mxGeometry width="50" height="50" relative="1" as="geometry">
            <mxPoint x="1530" y="659.41" as="sourcePoint" />
            <mxPoint x="1790" y="660.41" as="targetPoint" />
          </mxGeometry>
        </mxCell>
        <mxCell id="D5hKf2jFQNWXoEHRUFzK-86" value="" style="endArrow=classic;html=1;rounded=0;exitX=1;exitY=0.5;exitDx=0;exitDy=0;exitPerimeter=0;entryX=0;entryY=0.5;entryDx=0;entryDy=0;" edge="1" parent="1" target="D5hKf2jFQNWXoEHRUFzK-81">
          <mxGeometry width="50" height="50" relative="1" as="geometry">
            <mxPoint x="1530" y="746.91" as="sourcePoint" />
            <mxPoint x="1790" y="747.91" as="targetPoint" />
          </mxGeometry>
        </mxCell>
        <mxCell id="D5hKf2jFQNWXoEHRUFzK-87" value="&lt;span style=&quot;color: rgb(0, 0, 0); font-family: Helvetica; font-style: normal; font-variant-ligatures: normal; font-variant-caps: normal; font-weight: 400; letter-spacing: normal; orphans: 2; text-align: center; text-indent: 0px; text-transform: none; widows: 2; word-spacing: 0px; -webkit-text-stroke-width: 0px; white-space: normal; background-color: rgb(251, 251, 251); text-decoration-thickness: initial; text-decoration-style: initial; text-decoration-color: initial; float: none; display: inline !important;&quot;&gt;&lt;font style=&quot;font-size: 10px;&quot;&gt;processImcSned(List&amp;lt;String&amp;gt; message)&lt;/font&gt;&lt;/span&gt;&lt;div&gt;&lt;span style=&quot;color: rgb(0, 0, 0); font-family: Helvetica; font-style: normal; font-variant-ligatures: normal; font-variant-caps: normal; font-weight: 400; letter-spacing: normal; orphans: 2; text-align: center; text-indent: 0px; text-transform: none; widows: 2; word-spacing: 0px; -webkit-text-stroke-width: 0px; white-space: normal; background-color: rgb(251, 251, 251); text-decoration-thickness: initial; text-decoration-style: initial; text-decoration-color: initial; float: none; display: inline !important;&quot;&gt;&lt;font style=&quot;font-size: 10px;&quot;&gt;Poll 500 messages&amp;nbsp;&lt;/font&gt;&lt;/span&gt;&lt;/div&gt;" style="text;html=1;align=center;verticalAlign=middle;whiteSpace=wrap;rounded=0;" vertex="1" parent="1">
          <mxGeometry x="1570" y="640" width="210" height="30" as="geometry" />
        </mxCell>
        <mxCell id="D5hKf2jFQNWXoEHRUFzK-88" value="&lt;span style=&quot;color: rgb(0, 0, 0); font-family: Helvetica; font-style: normal; font-variant-ligatures: normal; font-variant-caps: normal; font-weight: 400; letter-spacing: normal; orphans: 2; text-align: center; text-indent: 0px; text-transform: none; widows: 2; word-spacing: 0px; -webkit-text-stroke-width: 0px; white-space: normal; background-color: rgb(251, 251, 251); text-decoration-thickness: initial; text-decoration-style: initial; text-decoration-color: initial; float: none; display: inline !important;&quot;&gt;&lt;font style=&quot;font-size: 10px;&quot;&gt;processImcSend(List&amp;lt;String&amp;gt; message)&lt;br&gt;&lt;/font&gt;&lt;/span&gt;&lt;div&gt;&lt;span style=&quot;color: rgb(0, 0, 0); font-family: Helvetica; font-style: normal; font-variant-ligatures: normal; font-variant-caps: normal; font-weight: 400; letter-spacing: normal; orphans: 2; text-align: center; text-indent: 0px; text-transform: none; widows: 2; word-spacing: 0px; -webkit-text-stroke-width: 0px; white-space: normal; background-color: rgb(251, 251, 251); text-decoration-thickness: initial; text-decoration-style: initial; text-decoration-color: initial; float: none; display: inline !important;&quot;&gt;&lt;font style=&quot;font-size: 10px;&quot;&gt;&lt;span style=&quot;background-color: transparent; color: light-dark(rgb(0, 0, 0), rgb(255, 255, 255));&quot;&gt;Poll 500 messages&lt;/span&gt;&amp;nbsp;&lt;/font&gt;&lt;/span&gt;&lt;/div&gt;" style="text;html=1;align=center;verticalAlign=middle;whiteSpace=wrap;rounded=0;" vertex="1" parent="1">
          <mxGeometry x="1570" y="724" width="210" height="30" as="geometry" />
        </mxCell>
        <mxCell id="D5hKf2jFQNWXoEHRUFzK-89" value="&lt;h3&gt;&lt;span style=&quot;color: rgb(0, 0, 0); font-family: Helvetica; font-style: normal; font-variant-ligatures: normal; font-variant-caps: normal; font-weight: 400; letter-spacing: normal; orphans: 2; text-align: center; text-indent: 0px; text-transform: none; widows: 2; word-spacing: 0px; -webkit-text-stroke-width: 0px; white-space: normal; background-color: rgb(251, 251, 251); text-decoration-thickness: initial; text-decoration-style: initial; text-decoration-color: initial; float: none; display: inline !important;&quot;&gt;&lt;font style=&quot;font-size: 18px;&quot;&gt;Maria DB&lt;/font&gt;&lt;/span&gt;&lt;/h3&gt;" style="text;html=1;align=center;verticalAlign=middle;whiteSpace=wrap;rounded=0;" vertex="1" parent="1">
          <mxGeometry x="2320" y="564" width="140" height="35" as="geometry" />
        </mxCell>
        <mxCell id="D5hKf2jFQNWXoEHRUFzK-90" value="" style="rounded=1;whiteSpace=wrap;html=1;" vertex="1" parent="1">
          <mxGeometry x="2250" y="597" width="290" height="245" as="geometry" />
        </mxCell>
        <mxCell id="D5hKf2jFQNWXoEHRUFzK-91" value="PROGRMA_MA_SCHD&lt;div&gt;PROGRMA_MA_SCHD_CHANNEL&lt;/div&gt;&lt;div&gt;PROGRAM_MA_TARGET_LIST&lt;/div&gt;" style="shape=cylinder3;whiteSpace=wrap;html=1;boundedLbl=1;backgroundOutline=1;size=15;" vertex="1" parent="1">
          <mxGeometry x="2291" y="637.5" width="200" height="130" as="geometry" />
        </mxCell>
        <mxCell id="D5hKf2jFQNWXoEHRUFzK-92" value="" style="endArrow=classic;html=1;rounded=0;exitX=1;exitY=0.5;exitDx=0;exitDy=0;entryX=0;entryY=0.5;entryDx=0;entryDy=0;entryPerimeter=0;" edge="1" parent="1" source="D5hKf2jFQNWXoEHRUFzK-80" target="D5hKf2jFQNWXoEHRUFzK-91">
          <mxGeometry width="50" height="50" relative="1" as="geometry">
            <mxPoint x="2019.0000000000005" y="674" as="sourcePoint" />
            <mxPoint x="2299.0000000000005" y="682.02" as="targetPoint" />
          </mxGeometry>
        </mxCell>
        <mxCell id="D5hKf2jFQNWXoEHRUFzK-93" value="" style="endArrow=classic;html=1;rounded=0;exitX=1;exitY=0.5;exitDx=0;exitDy=0;entryX=0;entryY=0.5;entryDx=0;entryDy=0;entryPerimeter=0;" edge="1" parent="1" target="D5hKf2jFQNWXoEHRUFzK-91">
          <mxGeometry width="50" height="50" relative="1" as="geometry">
            <mxPoint x="2020.0000000000005" y="764.75" as="sourcePoint" />
            <mxPoint x="2301" y="713.25" as="targetPoint" />
          </mxGeometry>
        </mxCell>
        <mxCell id="D5hKf2jFQNWXoEHRUFzK-94" value="Batch UPDATE&amp;nbsp;&lt;div&gt;Batch INSERT&lt;/div&gt;" style="text;html=1;align=center;verticalAlign=middle;whiteSpace=wrap;rounded=0;" vertex="1" parent="1">
          <mxGeometry x="2100" y="687" width="120" height="30" as="geometry" />
        </mxCell>
        <mxCell id="D5hKf2jFQNWXoEHRUFzK-95" value="imcAtBizMsgLog_sourceConnector" style="rounded=1;whiteSpace=wrap;html=1;" vertex="1" parent="1">
          <mxGeometry x="850" y="711.5" width="210" height="55" as="geometry" />
        </mxCell>
        <mxCell id="D5hKf2jFQNWXoEHRUFzK-98" value="" style="endArrow=classic;html=1;rounded=0;exitX=1;exitY=0.5;exitDx=0;exitDy=0;entryX=0;entryY=0.5;entryDx=0;entryDy=0;" edge="1" parent="1" source="D5hKf2jFQNWXoEHRUFzK-59" target="D5hKf2jFQNWXoEHRUFzK-95">
          <mxGeometry width="50" height="50" relative="1" as="geometry">
            <mxPoint x="320" y="760" as="sourcePoint" />
            <mxPoint x="860" y="687" as="targetPoint" />
          </mxGeometry>
        </mxCell>
        <mxCell id="D5hKf2jFQNWXoEHRUFzK-99" value="&lt;font style=&quot;font-size: 14px;&quot;&gt;tma-connect&lt;/font&gt;" style="text;html=1;align=center;verticalAlign=middle;whiteSpace=wrap;rounded=0;" vertex="1" parent="1">
          <mxGeometry x="897.5" y="593" width="115" height="30" as="geometry" />
        </mxCell>
      </root>
    </mxGraphModel>
  </diagram>
</mxfile>
